# xmcd
#
# Track frame offsets: 
#        150
#        1465
#        10922
#        25590
#        44417
#        58447
#        80210
#        99152
#        109002
#        111975
#        113247
#        117700
#        134260
#        148230
#        158012
#        175940
#        186180
#        203070
#        211125
#        231797
#        252585
#        268305
#
# Disc length: 3800 seconds
#
# Revision: 2
# Processed by: cddbd v1.5.2PL0 Copyright (c) Steve Scherf et al.
# Submitted via: ExactAudioCopy v1.3
#
DISCID=440ed616
DTITLE=KRS-One - I Got Next
DYEAR=1997
DGENRE=Hip-Hop
TTITLE0=1st Quarter - The Commentary
TTITLE1=2nd Quarter - Free Throws
TTITLE2=The MC
TTITLE3=I Got Next - Neva Hadda Gun
TTITLE4=Heratbeat (feat. Redman and Angie Martinez)
TTITLE5=Step Into A World (Rapture's Delight)
TTITLE6=A Friend
TTITLE7=H.I.P.H.O.P.
TTITLE8=Halftime
TTITLE9=3rd Quarter - The Commentary
TTITLE10=Klassicks
TTITLE11=Blowe (fat. Redman)
TTITLE12=Real Hip Hop - Part II (feat. Mic Vandalz)
TTITLE13=Come To Da Party
TTITLE14=Can't Stop Won't Stop
TTITLE15=Over Ya Head
TTITLE16=Just To Prove A Point
TTITLE17=4th Quarter - Free Throws
TTITLE18=Step Into A World (Rapper's Delight) (Radio Mix) (Bonus Track
TTITLE18=)
TTITLE19=Step Into A World (Rapper's Delight) (Instrumental) (Bonus Tr
TTITLE19=ack)
TTITLE20=Word Perfect (Bonus Track)
TTITLE21=Perhaps She'll Die (Bonus Track)
EXTD=
EXTT0=
EXTT1=
EXTT2=
EXTT3=
EXTT4=
EXTT5=
EXTT6=
EXTT7=
EXTT8=
EXTT9=
EXTT10=
EXTT11=
EXTT12=
EXTT13=
EXTT14=
EXTT15=
EXTT16=
EXTT17=
EXTT18=
EXTT19=
EXTT20=
EXTT21=
PLAYORDER=
